<svg width="45" height="33" viewBox="0 0 45 33" fill="none" xmlns="http://www.w3.org/2000/svg">
<g id="Group 1171275702">
<circle id="Ellipse 66" cx="28.5" cy="16.5" r="16.5" fill="#ED3237" fill-opacity="0.58"/>
<path id="Vector" d="M14.5 29C21.9558 29 28 22.9558 28 15.5C28 8.04416 21.9558 2 14.5 2C7.04416 2 1 8.04416 1 15.5C1 22.9558 7.04416 29 14.5 29Z" stroke="black" stroke-width="2" stroke-linecap="round" stroke-linejoin="round"/>
<path id="Vector_2" d="M14.5016 20.9C17.4839 20.9 19.9016 18.4823 19.9016 15.5C19.9016 12.5176 17.4839 10.1 14.5016 10.1C11.5192 10.1 9.10156 12.5176 9.10156 15.5C9.10156 18.4823 11.5192 20.9 14.5016 20.9Z" stroke="black" stroke-width="2" stroke-linecap="round" stroke-linejoin="round"/>
<path id="Vector_3" d="M18.3203 19.3204L24.0443 25.0444" stroke="black" stroke-width="2" stroke-linecap="round" stroke-linejoin="round"/>
<path id="Vector_4" d="M4.95703 25.0444L10.681 19.3204" stroke="black" stroke-width="2" stroke-linecap="round" stroke-linejoin="round"/>
<path id="Vector_5" d="M18.3203 11.6796L23.0858 6.91406" stroke="black" stroke-width="2" stroke-linecap="round" stroke-linejoin="round"/>
<path id="Vector_6" d="M4.95703 5.95557L10.681 11.6796" stroke="black" stroke-width="2" stroke-linecap="round" stroke-linejoin="round"/>
</g>
</svg>
