<svg width="327" height="327" viewBox="0 0 327 327" fill="none" xmlns="http://www.w3.org/2000/svg">
<g id="Sketch-annotation-element-stroke-line-arrow-spiral-down-5">
<path id="Vector" d="M150.375 245.176C142.314 244.316 131.486 242.923 123.779 240.73M123.779 240.73C122.891 240.477 126.671 234.67 126.868 234.417C131.181 228.863 136.089 224.044 141.196 219.239M123.779 240.73C167.542 235.673 199.127 204.269 199.846 172.87C199.917 169.758 199.991 166.371 199.764 162.992M199.764 162.992C199.402 157.61 198.274 152.249 195.15 148.052C192.267 144.179 186.879 140.348 181.867 140.983C172.505 142.17 169.806 154.392 176.163 160.897C181.75 166.613 193.479 167.79 199.764 162.992ZM199.764 162.992C199.897 162.89 200.027 162.787 200.154 162.68C230.957 136.963 213.257 93.2305 184.358 77.64" stroke="#FFAFAF" stroke-width="5" stroke-miterlimit="1.5" stroke-linecap="round" stroke-linejoin="round"/>
</g>
</svg>
