<svg width="28" height="28" viewBox="0 0 28 28" fill="none" xmlns="http://www.w3.org/2000/svg">
<g id="Group">
<path id="Vector" d="M13.9998 0.666687C11.3628 0.666687 8.7849 1.44867 6.59224 2.91376C4.39958 4.37884 2.69062 6.46123 1.68145 8.89757C0.672281 11.3339 0.408237 14.0148 0.922706 16.6012C1.43718 19.1876 2.70705 21.5634 4.57175 23.4281C6.43645 25.2928 8.81223 26.5627 11.3986 27.0772C13.9851 27.5916 16.6659 27.3276 19.1023 26.3184C21.5386 25.3092 23.621 23.6003 25.0861 21.4076C26.5512 19.215 27.3332 16.6371 27.3332 14C27.3332 12.2491 26.9883 10.5152 26.3182 8.89757C25.6482 7.2799 24.666 5.81004 23.4279 4.57193C22.1898 3.33382 20.72 2.35169 19.1023 1.68163C17.4846 1.01156 15.7508 0.666687 13.9998 0.666687ZM13.9998 24.6667C11.8902 24.6667 9.82788 24.0411 8.07376 22.869C6.31964 21.697 4.95246 20.0311 4.14513 18.082C3.33779 16.1329 3.12656 13.9882 3.53813 11.9191C3.94971 9.84993 4.96561 7.94931 6.45737 6.45755C7.94913 4.96579 9.84975 3.94989 11.9189 3.53831C13.988 3.12674 16.1327 3.33797 18.0818 4.14531C20.0309 4.95264 21.6968 6.31981 22.8689 8.07394C24.0409 9.82806 24.6665 11.8904 24.6665 14C24.6665 16.829 23.5427 19.5421 21.5423 21.5425C19.5419 23.5429 16.8288 24.6667 13.9998 24.6667Z" fill="#ED3237"/>
<path id="Vector_2" d="M17.6001 9.18668L12.5601 15.8533L10.3868 13.04C10.1693 12.7606 9.84973 12.5791 9.49841 12.5354C9.1471 12.4916 8.79278 12.5892 8.51342 12.8067C8.23406 13.0242 8.05253 13.3437 8.00878 13.695C7.96502 14.0463 8.06261 14.4007 8.28009 14.68L11.5201 18.8267C11.6457 18.9856 11.8058 19.1138 11.9883 19.2016C12.1708 19.2894 12.3709 19.3344 12.5734 19.3333C12.777 19.3329 12.9779 19.2857 13.1604 19.1956C13.343 19.1055 13.5025 18.9747 13.6268 18.8133L19.7201 10.8133C19.9358 10.5304 20.0303 10.1734 19.9828 9.82088C19.9353 9.46831 19.7497 9.14905 19.4668 8.93334C19.1839 8.71764 18.8269 8.62314 18.4743 8.67065C18.1217 8.71816 17.8025 8.90378 17.5868 9.18668H17.6001Z" fill="#ED3237"/>
</g>
</svg>
