<svg width="16" height="16" viewBox="0 0 16 16" fill="none" xmlns="http://www.w3.org/2000/svg">
<g id="copyright(1) 1" clip-path="url(#clip0_30_172)">
<g id="Group">
<g id="Group_2">
<g id="Group_3">
<path id="Vector" d="M6.46283 8.90791C6.50683 9.16791 6.58683 9.39991 6.70283 9.60391C6.81883 9.80791 6.97883 9.97191 7.17483 10.0959C7.36283 10.2119 7.59883 10.2759 7.89083 10.2799C8.08283 10.2759 8.25883 10.2439 8.41083 10.1759C8.57483 10.1039 8.71083 10.0079 8.82683 9.88791C8.94283 9.76791 9.03083 9.62391 9.09483 9.46391C9.15883 9.30391 9.19483 9.13191 9.20283 8.95191H10.6348C10.6228 9.32791 10.5468 9.67191 10.4148 9.98391C10.2828 10.2959 10.0908 10.5639 9.85083 10.7919C9.61083 11.0199 9.32283 11.1919 8.98683 11.3159C8.65083 11.4399 8.27883 11.5039 7.87083 11.5039C7.35083 11.5039 6.89883 11.4159 6.51483 11.2359C6.13083 11.0559 5.81083 10.8119 5.55483 10.4999C5.29883 10.1879 5.10683 9.82791 4.98283 9.41591C4.85883 9.00391 4.79883 8.5679 4.79883 8.1079V7.8879C4.79883 7.4239 4.86283 6.9879 4.98683 6.5759C5.11083 6.1639 5.30283 5.8039 5.55883 5.4959C5.81483 5.1879 6.13483 4.9439 6.52283 4.7639C6.91083 4.5839 7.36283 4.4959 7.88283 4.4959C8.25883 4.4959 8.61083 4.5559 8.93883 4.6799C9.26683 4.8039 9.55483 4.9719 9.80283 5.1879C10.0508 5.4039 10.2508 5.6519 10.3948 5.9399C10.5388 6.2279 10.6228 6.5319 10.6348 6.8599H9.20283C9.19483 6.6919 9.15483 6.5399 9.08283 6.3959C9.01083 6.2519 8.91483 6.1319 8.79483 6.0319C8.67483 5.9319 8.53483 5.8519 8.37483 5.7959C8.22283 5.7439 8.06283 5.7159 7.89083 5.7159C7.60283 5.7239 7.36683 5.7839 7.17483 5.9039C6.97483 6.0319 6.81483 6.1959 6.69883 6.3999C6.58283 6.6039 6.50283 6.8359 6.45883 7.09991C6.41483 7.3639 6.39883 7.6199 6.39883 7.8879V8.1079C6.39883 8.3799 6.41883 8.64791 6.46283 8.90791Z" fill="#494949"/>
<path id="Vector_2" d="M8 16C3.58 16 0 12.42 0 8C0 3.58 3.58 0 8 0C12.42 0 16 3.58 16 8C16 12.42 12.42 16 8 16ZM8 1.6C4.472 1.6 1.6 4.472 1.6 8C1.6 11.528 4.472 14.4 8 14.4C11.528 14.4 14.4 11.528 14.4 8C14.4 4.472 11.528 1.6 8 1.6Z" fill="#494949"/>
</g>
</g>
</g>
</g>
<defs>
<clipPath id="clip0_30_172">
<rect width="16" height="16" fill="white" transform="matrix(1 0 0 -1 0 16)"/>
</clipPath>
</defs>
</svg>
