<?xml version="1.0" encoding="UTF-8" standalone="no"?>
<svg
   width="637"
   height="800"
   viewBox="0 0 637 800"
   fill="none"
   version="1.1"
   id="svg4"
   sodipodi:docname="cracks.svg"
   inkscape:version="1.2.2 (732a01da63, 2022-12-09)"
   xmlns:inkscape="http://www.inkscape.org/namespaces/inkscape"
   xmlns:sodipodi="http://sodipodi.sourceforge.net/DTD/sodipodi-0.dtd"
   xmlns="http://www.w3.org/2000/svg"
   xmlns:svg="http://www.w3.org/2000/svg">
  <defs
     id="defs8" />
  <sodipodi:namedview
     id="namedview6"
     pagecolor="#505050"
     bordercolor="#eeeeee"
     borderopacity="1"
     inkscape:showpageshadow="0"
     inkscape:pageopacity="0"
     inkscape:pagecheckerboard="0"
     inkscape:deskcolor="#505050"
     showgrid="false"
     inkscape:zoom="0.59625"
     inkscape:cx="249.0566"
     inkscape:cy="400"
     inkscape:window-width="1366"
     inkscape:window-height="658"
     inkscape:window-x="-6"
     inkscape:window-y="-6"
     inkscape:window-maximized="1"
     inkscape:current-layer="svg4" />
  <path
     d="M1135.63 0.483533C1084.28 140.246 963.38 131.71 876.351 120.937C855.294 118.331 837.776 113.55 815.852 118.412C792.467 123.597 769.621 131.459 746.432 139.39C715.822 149.86 688.17 160.468 662.622 189.721C640.824 214.68 624.485 248.569 603.921 275.851C577.636 310.722 537.914 324.921 504.41 335.633C452.232 352.316 396.08 341.16 344.91 373.907C330.328 383.24 308.837 399.961 298.452 417.541C285.797 438.963 276.624 462.432 262.66 483.101C232.096 528.338 197.224 549.357 158.671 578.11C135.644 595.284 112.102 609.754 90.2994 630.163C79.8217 639.971 79.6924 641.932 59.5972 664.731C39.5019 687.529 39.2969 691.04 25.2219 705.322C11.1469 719.603 4.70048 729.9 1.8962 742.645C-2.26941 761.576 7.7422 789.247 31.6192 793.935C41.8268 795.939 62.0756 794.234 72.2832 796.238C101.503 801.976 116.224 797.648 145.785 787.168C178.618 775.529 209.378 763.451 242.527 762.762C279.721 761.989 317.7 776.026 353.731 783.101C386.397 789.516 418.901 800.1 453.234 792.537C479.26 786.805 497.951 771.974 522.543 755.635C545.686 740.258 558.783 740.061 581.515 741.959C609.991 744.337 637.444 744.523 665.506 750.033C691.068 755.053 716.63 760.072 742.192 765.091C770.415 770.633 795.402 771.755 824.778 765.593C846.428 761.052 869.265 751.694 890.76 743.752C910.405 736.494 934.685 739.158 954.228 739.565C986.018 740.227 1016.69 748.276 1047.56 754.338C1066.91 758.136 1085.14 760.31 1102.12 770.29C1112.54 776.412 1116.77 790.1 1125.68 796.616"
     stroke="#4CBE91"
     stroke-opacity="0.33"
     stroke-width="0.752537"
     stroke-linecap="round"
     stroke-linejoin="round"
     id="path2" />
  <path
     d="m 987.52353,172.99985 c -34.691,91.99789 -118.92701,85.47149 -179.59901,77.71449 -14.679,-1.8769 -26.912,-5.1648 -42.139,-2.112 -16.241,3.2562 -32.087,8.285 -48.171,13.3573 -21.232,6.6958 -40.403,13.5049 -57.969,32.6519 -14.987,16.337 -26.105,38.615 -40.216,56.496 -18.036,22.855 -45.583,31.949 -68.827,38.784 -36.201,10.645 -75.379,2.86 -110.755,24.13 -10.082,6.061 -24.917,16.955 -32.015,28.499 -8.648,14.065 -14.857,29.51 -24.422,43.068 -20.937,29.675 -45.056,43.312 -71.679,62.034 -15.9015,11.182 -32.1824,20.574 -47.2069,33.903 -7.2205,6.406 -7.2957,7.701 -21.1136,22.622 -13.818,14.922 -13.9342,17.241 -23.6252,26.577 -9.69106,9.336 -14.10117,16.094 -15.95713,24.497 -2.75693,12.482 4.42246,30.843 21.08113,34.117 7.1217,1.399 21.2061,0.42 28.3279,1.82 20.3859,4.006 30.6023,1.253 51.1038,-5.457 22.77,-7.452 44.094,-15.21 67.167,-15.423 25.889,-0.239 52.436,9.317 77.575,14.257 22.79,4.478 45.499,11.712 69.345,6.965 18.076,-3.599 30.977,-13.264 47.974,-23.883 15.996,-9.994 25.113,-10.028 40.953,-8.607 19.843,1.78 38.957,2.103 58.536,5.951 17.835,3.504 35.669,7.009 53.503,10.513 19.691,3.87 37.096,4.794 57.5,0.936 15.039,-2.843 30.868,-8.86 45.772,-13.952 13.622,-4.653 30.546,-2.715 44.155,-2.303 22.13701,0.67 43.55301,6.214 65.09201,10.447 13.496,2.652 26.208,4.222 38.106,10.942 7.3,4.123 10.349,13.201 16.598,17.573"
     stroke="#4cbe91"
     stroke-opacity="0.33"
     stroke-width="0.752537"
     stroke-linecap="round"
     stroke-linejoin="round"
     id="path293" />
  <path
     d="m 873.59103,306.20534 c -21.954,55.5517 -77.99,50.6148 -118.387,45.2001 -9.773,-1.3101 -17.939,-3.4502 -28.018,-1.7686 -10.75,1.7938 -21.217,4.6701 -31.842,7.5701 -14.025,3.8282 -26.679,7.7489 -38.121,19.1919 -9.762,9.7633 -16.884,23.1847 -26.045,33.8968 -11.711,13.693 -29.903,18.907 -45.263,22.797 -23.922,6.058 -50.04,0.873 -73.288,13.402 -6.626,3.571 -16.352,10.026 -20.93,16.965 -5.578,8.455 -9.519,17.776 -15.713,25.912 -13.556,17.807 -29.4164,25.823 -46.8801,36.903 -10.4307,6.618 -21.1347,12.143 -30.9575,20.077 -4.7206,3.813 -4.7551,4.599 -13.7574,13.515 -9.0023,8.916 -9.052,10.325 -15.379,15.892 -6.32705,5.567 -9.17652,9.626 -10.30975,14.715 -1.68334,7.56 3.30381,18.809 14.40905,20.991 4.7476,0.933 14.0923,0.499 18.8399,1.432 13.5901,2.671 20.3442,1.114 33.8837,-2.731 15.0379,-4.271 29.1114,-8.744 44.4371,-8.608 17.195,0.152 34.943,6.269 51.702,9.562 15.193,2.985 30.364,7.645 46.149,5.032 11.965,-1.981 20.42,-7.711 31.586,-13.973 10.508,-5.894 16.563,-5.811 27.103,-4.765 13.203,1.311 25.904,1.727 38.956,4.292 11.889,2.336 23.778,4.673 35.667,7.009 13.127,2.579 24.7,3.341 38.209,1.23 9.956,-1.556 20.4,-5.034 30.241,-7.96 8.994,-2.673 20.259,-1.3 29.305,-0.893 14.713,0.662 29.006,4.28 43.364,7.101 8.997,1.768 17.461,2.869 25.445,7.093 4.897,2.591 7.031,8.147 11.234,10.878"
     stroke="#4cbe91"
     stroke-opacity="0.33"
     stroke-width="0.752537"
     stroke-linecap="round"
     stroke-linejoin="round"
     id="path440" />
  <path
     d="m 912.14598,365.37603 c -15.188,36.47118 -55.953,32.46398 -85.367,28.34718 -7.116,-0.9961 -13.076,-2.5202 -20.373,-1.5405 -7.784,1.045 -15.347,2.8101 -23.024,4.5889 -10.134,2.348 -19.271,4.7753 -27.425,12.1966 -6.957,6.3319 -11.946,15.1194 -18.454,22.0873 -8.319,8.9064 -21.46,12.1165 -32.563,14.4875 -17.292,3.6928 -36.332,-0.0831 -53.046,7.9009 -4.764,2.2753 -11.7393,6.4184 -14.9696,10.9498 -3.9361,5.5209 -6.6714,11.6379 -11.0587,16.9399 -9.6027,11.605 -21.013,16.7 -33.5455,23.801 -7.4855,4.242 -15.1844,7.757 -22.2104,12.877 -3.3765,2.461 -3.3909,2.981 -9.8075,8.762 -6.4167,5.781 -6.4335,6.713 -10.95289,10.313 -4.51934,3.6 -6.53351,6.249 -7.28714,9.602 -1.11947,4.98 2.65613,12.49 10.75153,14.081 3.4609,0.68 10.242,0.516 13.7029,1.196 9.9067,1.947 14.791,1.006 24.5722,-1.359 10.8636,-2.628 21.0241,-5.402 32.1566,-5.11 12.4907,0.328 25.4645,4.61 37.6815,7.011 11.075,2.176 22.158,5.46 33.586,3.94 8.663,-1.153 14.726,-4.833 22.75,-8.83 7.552,-3.762 11.951,-3.626 19.62,-2.795 9.607,1.042 18.838,1.485 28.353,3.355 8.666,1.703 17.333,3.406 26,5.109 9.569,1.88 17.984,2.538 27.767,1.319 7.21,-0.899 14.748,-3.062 21.855,-4.868 6.496,-1.65 14.697,-0.593 21.272,-0.204 10.696,0.632 21.126,3.215 31.593,5.272 6.558,1.289 12.72,2.129 18.576,5.03 3.593,1.779 5.218,5.484 8.308,7.346"
     stroke="#4cbe91"
     stroke-opacity="0.33"
     stroke-width="0.752537"
     stroke-linecap="round"
     stroke-linejoin="round"
     id="path587" />
</svg>
