<svg width="155" height="137" viewBox="0 0 155 137" fill="none" xmlns="http://www.w3.org/2000/svg">
<g id="Group 1290" opacity="0.5">
<rect id="Rectangle 145" y="136.721" width="5.74412" height="5.74412" rx="2" transform="rotate(-90 0 136.721)" fill="#ED3237"/>
<rect id="Rectangle 154" x="29.7441" y="136.721" width="5.74412" height="5.74412" rx="2" transform="rotate(-90 29.7441 136.721)" fill="#ED3237"/>
<rect id="Rectangle 163" x="59.4883" y="136.721" width="5.74412" height="5.74412" rx="2" transform="rotate(-90 59.4883 136.721)" fill="#ED3237"/>
<rect id="Rectangle 172" x="89.2324" y="136.721" width="5.74412" height="5.74412" rx="2" transform="rotate(-90 89.2324 136.721)" fill="#ED3237"/>
<rect id="Rectangle 181" x="118.977" y="136.721" width="5.74412" height="5.74412" rx="2" transform="rotate(-90 118.977 136.721)" fill="#ED3237"/>
<rect id="Rectangle 190" x="148.721" y="136.721" width="5.74412" height="5.74412" rx="2" transform="rotate(-90 148.721 136.721)" fill="#ED3237"/>
<rect id="Rectangle 146" y="103.977" width="5.74412" height="5.74412" rx="2" transform="rotate(-90 0 103.977)" fill="#ED3237"/>
<rect id="Rectangle 155" x="29.7441" y="103.977" width="5.74412" height="5.74412" rx="2" transform="rotate(-90 29.7441 103.977)" fill="#ED3237"/>
<rect id="Rectangle 164" x="59.4883" y="103.977" width="5.74412" height="5.74412" rx="2" transform="rotate(-90 59.4883 103.977)" fill="#ED3237"/>
<rect id="Rectangle 173" x="89.2324" y="103.977" width="5.74412" height="5.74412" rx="2" transform="rotate(-90 89.2324 103.977)" fill="#ED3237"/>
<rect id="Rectangle 182" x="118.977" y="103.977" width="5.74412" height="5.74412" rx="2" transform="rotate(-90 118.977 103.977)" fill="#ED3237"/>
<rect id="Rectangle 191" x="148.721" y="103.977" width="5.74412" height="5.74412" rx="2" transform="rotate(-90 148.721 103.977)" fill="#ED3237"/>
<rect id="Rectangle 147" y="71.2324" width="5.74412" height="5.74412" rx="2" transform="rotate(-90 0 71.2324)" fill="#ED3237"/>
<rect id="Rectangle 156" x="29.7441" y="71.2324" width="5.74412" height="5.74412" rx="2" transform="rotate(-90 29.7441 71.2324)" fill="#ED3237"/>
<rect id="Rectangle 165" x="59.4883" y="71.2324" width="5.74412" height="5.74412" rx="2" transform="rotate(-90 59.4883 71.2324)" fill="#ED3237"/>
<rect id="Rectangle 174" x="89.2324" y="71.2324" width="5.74412" height="5.74412" rx="2" transform="rotate(-90 89.2324 71.2324)" fill="#ED3237"/>
<rect id="Rectangle 183" x="118.977" y="71.2324" width="5.74412" height="5.74412" rx="2" transform="rotate(-90 118.977 71.2324)" fill="#ED3237"/>
<rect id="Rectangle 192" x="148.721" y="71.2324" width="5.74412" height="5.74412" rx="2" transform="rotate(-90 148.721 71.2324)" fill="#ED3237"/>
<rect id="Rectangle 148" y="38.4883" width="5.74412" height="5.74412" rx="2" transform="rotate(-90 0 38.4883)" fill="#ED3237"/>
<rect id="Rectangle 157" x="29.7441" y="38.4883" width="5.74412" height="5.74412" rx="2" transform="rotate(-90 29.7441 38.4883)" fill="#ED3237"/>
<rect id="Rectangle 166" x="59.4883" y="38.4883" width="5.74412" height="5.74412" rx="2" transform="rotate(-90 59.4883 38.4883)" fill="#ED3237"/>
<rect id="Rectangle 175" x="89.2324" y="38.4883" width="5.74412" height="5.74412" rx="2" transform="rotate(-90 89.2324 38.4883)" fill="#ED3237"/>
<rect id="Rectangle 184" x="118.977" y="38.4883" width="5.74412" height="5.74412" rx="2" transform="rotate(-90 118.977 38.4883)" fill="#ED3237"/>
<rect id="Rectangle 193" x="148.721" y="38.4883" width="5.74412" height="5.74412" rx="2" transform="rotate(-90 148.721 38.4883)" fill="#ED3237"/>
<rect id="Rectangle 149" y="5.74414" width="5.74412" height="5.74412" rx="2" transform="rotate(-90 0 5.74414)" fill="#ED3237"/>
<rect id="Rectangle 158" x="29.7441" y="5.74414" width="5.74412" height="5.74412" rx="2" transform="rotate(-90 29.7441 5.74414)" fill="#ED3237"/>
<rect id="Rectangle 167" x="59.4883" y="5.74414" width="5.74412" height="5.74412" rx="2" transform="rotate(-90 59.4883 5.74414)" fill="#ED3237"/>
<rect id="Rectangle 176" x="89.2324" y="5.74414" width="5.74412" height="5.74412" rx="2" transform="rotate(-90 89.2324 5.74414)" fill="#ED3237"/>
<rect id="Rectangle 185" x="118.977" y="5.74414" width="5.74412" height="5.74412" rx="2" transform="rotate(-90 118.977 5.74414)" fill="#ED3237"/>
<rect id="Rectangle 194" x="148.721" y="5.74414" width="5.74412" height="5.74412" rx="2" transform="rotate(-90 148.721 5.74414)" fill="#ED3237"/>
</g>
</svg>
