<svg width="45" height="38" viewBox="0 0 45 38" fill="none" xmlns="http://www.w3.org/2000/svg">
<g id="Group 1171275704">
<circle id="Ellipse 64" cx="28.5" cy="21.5" r="16.5" fill="#ED3237" fill-opacity="0.58"/>
<g id="Shop bag">
<path id="Vector" d="M6 2L2 7.33333V26C2 26.7072 2.28095 27.3855 2.78105 27.8856C3.28115 28.3857 3.95942 28.6667 4.66667 28.6667H23.3333C24.0406 28.6667 24.7189 28.3857 25.219 27.8856C25.719 27.3855 26 26.7072 26 26V7.33333L22 2H6Z" stroke="black" stroke-width="2.66667" stroke-linecap="round" stroke-linejoin="round"/>
<path id="Vector_2" d="M19.3327 12.6666C19.3327 14.0811 18.7708 15.4377 17.7706 16.4379C16.7704 17.4381 15.4138 18 13.9993 18C12.5849 18 11.2283 17.4381 10.2281 16.4379C9.22792 15.4377 8.66602 14.0811 8.66602 12.6666" stroke="black" stroke-width="2.66667" stroke-linecap="round" stroke-linejoin="round"/>
<path id="Vector_3" d="M2 7.33325H26" stroke="black" stroke-width="2.66667" stroke-linecap="round" stroke-linejoin="round"/>
</g>
</g>
</svg>
