<svg width="46" height="37" viewBox="0 0 46 37" fill="none" xmlns="http://www.w3.org/2000/svg">
<g id="Group 1171275701">
<circle id="Ellipse 63" cx="29.5" cy="19.8636" r="16.5" fill="#ED3237" fill-opacity="0.58"/>
<g id="Truck">
<path id="Vector" d="M26.6594 27.3637C28.605 27.3637 30.1822 25.7865 30.1822 23.841C30.1822 21.8954 28.605 20.3182 26.6594 20.3182C24.7139 20.3182 23.1367 21.8954 23.1367 23.841C23.1367 25.7865 24.7139 27.3637 26.6594 27.3637Z" stroke="black" stroke-width="2.81818" stroke-linecap="round" stroke-linejoin="round"/>
<path id="Vector_2" d="M8.34109 27.3637C10.2866 27.3637 11.8638 25.7865 11.8638 23.841C11.8638 21.8954 10.2866 20.3182 8.34109 20.3182C6.39554 20.3182 4.81836 21.8954 4.81836 23.841C4.81836 25.7865 6.39554 27.3637 8.34109 27.3637Z" stroke="black" stroke-width="2.81818" stroke-linecap="round" stroke-linejoin="round"/>
<path id="Vector_3" d="M23.1367 9.04541H28.7731L33.0004 13.2727V20.3181H23.1367V9.04541Z" stroke="black" stroke-width="2.81818" stroke-linecap="round" stroke-linejoin="round"/>
<path id="Vector_4" d="M23.1364 2H2V20.3182H23.1364V2Z" stroke="black" stroke-width="2.81818" stroke-linecap="round" stroke-linejoin="round"/>
</g>
</g>
</svg>
