<svg width="30" height="30" viewBox="0 0 30 30" fill="none" xmlns="http://www.w3.org/2000/svg">
<g id="instagram 2" clip-path="url(#clip0_30_201)">
<g id="Group">
<g id="Group_2">
<path id="Vector" d="M20.625 0H9.375C4.19813 0 0 4.19813 0 9.375V20.625C0 25.8019 4.19813 30 9.375 30H20.625C25.8019 30 30 25.8019 30 20.625V9.375C30 4.19813 25.8019 0 20.625 0ZM27.1875 20.625C27.1875 24.2437 24.2437 27.1875 20.625 27.1875H9.375C5.75625 27.1875 2.8125 24.2437 2.8125 20.625V9.375C2.8125 5.75625 5.75625 2.8125 9.375 2.8125H20.625C24.2437 2.8125 27.1875 5.75625 27.1875 9.375V20.625Z" fill="#ED3237"/>
</g>
</g>
<g id="Group_3">
<g id="Group_4">
<path id="Vector_2" d="M15 7.5C10.8581 7.5 7.5 10.8581 7.5 15C7.5 19.1419 10.8581 22.5 15 22.5C19.1419 22.5 22.5 19.1419 22.5 15C22.5 10.8581 19.1419 7.5 15 7.5ZM15 19.6875C12.4162 19.6875 10.3125 17.5837 10.3125 15C10.3125 12.4144 12.4162 10.3125 15 10.3125C17.5837 10.3125 19.6875 12.4144 19.6875 15C19.6875 17.5837 17.5837 19.6875 15 19.6875Z" fill="#ED3237"/>
</g>
</g>
<g id="Group_5">
<g id="Group_6">
<path id="Vector_3" d="M23.0619 7.93721C23.6138 7.93721 24.0612 7.48978 24.0612 6.93784C24.0612 6.38591 23.6138 5.93848 23.0619 5.93848C22.5099 5.93848 22.0625 6.38591 22.0625 6.93784C22.0625 7.48978 22.5099 7.93721 23.0619 7.93721Z" fill="#ED3237"/>
</g>
</g>
</g>
<defs>
<clipPath id="clip0_30_201">
<rect width="30" height="30" fill="white"/>
</clipPath>
</defs>
</svg>
