<svg width="232" height="48" viewBox="0 0 232 48" fill="none" xmlns="http://www.w3.org/2000/svg">
<g id="Group 1171275750">
<g id="Layer_x0020_1">
<path id="Vector" d="M52.2553 17.648L63.8918 17.7084C63.339 11.7437 59.7441 7.06284 56.5631 4.68842C52.0831 1.34581 47.6258 -0.00453133 40.785 0.00302089C27.1971 0.0181253 13.5864 0.06797 0 0C0.64647 1.57388 2.18259 3.97398 3.10547 5.50708C4.4105 7.67759 5.00863 9.0536 7.303 10.1245C10.0324 11.3978 20.2233 10.8329 23.9904 10.8329C29.786 10.8329 35.6072 10.78 41.4013 10.8329C45.2121 10.8676 48.4596 11.6501 50.6588 14.6906C51.3959 15.7101 51.6179 16.6073 52.2553 17.645V17.648ZM18.1359 21.0178C18.4727 24.7637 17.5212 25.4978 19.1434 31.2466C23.8227 47.8222 44.5415 51.5137 55.7354 43.6186C59.7003 40.8228 63.3027 36.2537 64.0957 29.2709L52.3414 29.1984C51.9049 32.6241 48.7209 35.3761 45.5278 36.2673C32.1135 40.0117 26.3965 22.6687 33.5893 14.5093L34.4623 13.4173L7.75915 13.4022C8.23192 14.5652 10.3043 18.2039 10.9975 19.1283C12.792 21.5253 15.0637 20.5768 18.1359 21.0163V21.0178Z" fill="#ED3237"/>
</g>
<path id="Vector_2" d="M76.7729 30.5235C77.8771 31.605 79.3875 32.1473 81.3269 32.1473C82.5897 32.1473 83.7165 31.9222 84.7088 31.4479C85.7012 30.9752 86.5123 30.3665 87.121 29.6218C87.7297 28.8772 88.136 28.0661 88.3384 27.187L85.0018 26.172C84.6635 27.119 84.1907 27.8621 83.582 28.4044C82.9733 28.9451 82.2513 29.2155 81.4176 29.2155C80.5385 29.2155 79.8618 28.9225 79.4117 28.3138C78.9616 27.7051 78.735 26.8713 78.735 25.811C78.735 24.7295 78.9148 23.6918 79.2531 22.6994C79.5914 21.7071 80.0869 20.896 80.7409 20.2646C81.3949 19.6332 82.1834 19.3176 83.0851 19.3176C83.9415 19.3176 84.5729 19.5653 84.9792 20.0622C85.3855 20.5576 85.6106 21.3249 85.6332 22.3384L89.2175 21.6165C89.1948 19.9263 88.6768 18.6409 87.6391 17.7391C86.6014 16.8374 85.1816 16.3873 83.3781 16.3873C81.7091 16.3873 80.2439 16.8163 78.9812 17.6727C77.7185 18.5291 76.7488 19.6786 76.0736 21.1225C75.3969 22.565 75.0586 24.1434 75.0586 25.8336C75.0586 27.8395 75.5993 29.3952 76.705 30.4782L76.7729 30.5235ZM103.114 17.6062C102.009 17.0202 100.565 16.7271 98.7847 16.7271H93.622L90.9621 31.8316H94.4784L95.3575 26.8048H96.6428C96.8452 26.8048 97.2515 26.7822 97.8603 26.7595L99.4613 31.8316H103.227L101.221 26.2852C102.302 25.9469 103.138 25.3835 103.724 24.595C104.468 23.6933 104.828 22.5212 104.828 21.0561C104.828 19.3206 104.265 18.1711 103.159 17.5836L103.114 17.6062ZM101.242 21.1679C101.242 22.0016 101.017 22.6556 100.588 23.1299C100.047 23.7839 99.0324 24.1223 97.5446 24.1223H95.8544L96.6655 19.4112H98.2213C98.8753 19.4112 99.416 19.4339 99.8223 19.5018C100.229 19.5698 100.567 19.7269 100.837 19.9746C101.108 20.2223 101.244 20.6286 101.244 21.1694L101.242 21.1679ZM115.815 28.7427L116.199 31.8316H119.76L117.439 16.7271H113.043L105.355 31.8316H109.007L110.472 28.7427H115.815ZM115.477 26.0375H111.756L114.664 19.9278H114.732L115.477 26.0375ZM134.581 19.6121L135.099 16.7271H122.881L122.363 19.6121H126.714L124.55 31.8301H128.066L130.231 19.6121H134.582H134.581ZM138.31 18.5518C138.648 18.8674 139.076 19.026 139.595 19.026C140.159 19.026 140.633 18.8463 141.038 18.4626C141.444 18.079 141.647 17.5609 141.647 16.9069C141.647 16.3888 141.489 15.9598 141.151 15.6442C140.813 15.3285 140.384 15.1714 139.866 15.1714C139.28 15.1714 138.784 15.3738 138.378 15.7574C137.972 16.1411 137.769 16.6592 137.769 17.2905C137.769 17.8086 137.926 18.2376 138.265 18.5533H138.31V18.5518ZM137.408 20.5138L135.425 31.8316H138.83L140.813 20.5138H137.408ZM145.037 30.5235C146.142 31.605 147.652 32.1473 149.591 32.1473C150.854 32.1473 151.981 31.9222 152.973 31.4479C153.966 30.9752 154.777 30.3665 155.386 29.6218C155.994 28.8772 156.401 28.0661 156.603 27.187L153.266 26.172C152.928 27.119 152.455 27.8621 151.847 28.4044C151.238 28.9451 150.516 29.2155 149.682 29.2155C148.803 29.2155 148.126 28.9225 147.676 28.3138C147.226 27.7051 147 26.8713 147 25.811C147 24.7295 147.179 23.6918 147.518 22.6994C147.856 21.7071 148.351 20.896 149.005 20.2646C149.659 19.6332 150.448 19.3176 151.35 19.3176C152.206 19.3176 152.837 19.5653 153.244 20.0622C153.65 20.5576 153.875 21.3249 153.898 22.3384L157.482 21.6165C157.459 19.9263 156.941 18.6409 155.904 17.7391C154.866 16.8374 153.446 16.3873 151.643 16.3873C149.974 16.3873 148.508 16.8163 147.246 17.6727C145.983 18.5291 145.013 19.6786 144.338 21.1225C143.661 22.565 143.323 24.1434 143.323 25.8336C143.323 27.8395 143.864 29.3952 144.969 30.4782L145.037 30.5235ZM179.876 16.7271H176.36L175.322 22.7463H169.934L170.993 16.7271H167.477L164.817 31.8316H168.333L169.415 25.7218H174.757L173.698 31.8316H177.214L179.874 16.7271H179.876ZM183.582 30.5235C184.664 31.605 186.152 32.1473 188.023 32.1473C189.67 32.1473 191.135 31.741 192.419 30.9072C193.704 30.0734 194.695 28.9451 195.394 27.5253C196.093 26.1055 196.453 24.5271 196.453 22.7916C196.453 20.6724 195.935 19.0714 194.875 18.0125C193.814 16.9537 192.349 16.4115 190.479 16.4115C188.744 16.4115 187.233 16.8404 185.948 17.7195C184.662 18.5986 183.672 19.748 182.972 21.192C182.273 22.6345 181.935 24.1676 181.935 25.814C181.935 27.8652 182.475 29.4436 183.558 30.5251H183.581L183.582 30.5235ZM190.683 28.2911C190.006 28.9225 189.218 29.2382 188.294 29.2382C187.437 29.2382 186.76 28.9451 186.288 28.3591C185.815 27.773 185.566 26.9166 185.566 25.7883C185.566 24.7959 185.745 23.8051 186.106 22.8127C186.467 21.8204 186.986 21.0093 187.685 20.3552C188.384 19.7012 189.195 19.3855 190.12 19.3855C190.999 19.3855 191.653 19.7012 192.103 20.3099C192.553 20.9186 192.78 21.7977 192.78 22.9472C192.78 23.9622 192.6 24.953 192.239 25.9227C191.878 26.8924 191.36 27.7035 190.683 28.3349V28.2896V28.2911ZM201.22 16.7256L198.56 31.8301H201.738L203.542 21.6406H203.609L205.863 29.8016H208.185L213.325 21.618H213.393L211.589 31.8301H214.767L217.427 16.7256H213.325L207.756 25.6086H207.688L205.208 16.7256H201.217H201.22ZM224.629 19.6106H231.482L232 16.7256H221.606L218.947 31.8301H229.52L230.038 28.9451H222.981L223.59 25.5179H230.015L230.51 22.7448H224.062L224.626 19.6106H224.629Z" fill="#373460"/>
</g>
</svg>
