<svg width="30" height="30" viewBox="0 0 30 30" fill="none" xmlns="http://www.w3.org/2000/svg">
<g id="twitter(2) 2">
<path id="Vector" d="M9.77285 26.2626C20.3866 26.2626 26.1908 17.4694 26.1908 9.84465C26.1908 9.59491 26.1857 9.3462 26.1745 9.09887C27.3011 8.28429 28.2802 7.2678 29.0529 6.11078C28.019 6.57052 26.9062 6.8796 25.7392 7.01943C26.9304 6.30479 27.8451 5.17477 28.2765 3.8277C27.1616 4.48868 25.9268 4.96889 24.6124 5.22826C23.5594 4.10667 22.0601 3.40527 20.4002 3.40527C17.2138 3.40527 14.6295 5.98935 14.6295 9.17472C14.6295 9.62776 14.6803 10.0681 14.7792 10.4905C9.98338 10.2492 5.73058 7.9532 2.88489 4.46168C2.38954 5.31426 2.10368 6.30496 2.10368 7.36205C2.10368 9.36374 3.12242 11.1314 4.67142 12.165C3.72475 12.136 2.83553 11.8761 2.0581 11.4435C2.05724 11.4678 2.05724 11.4913 2.05724 11.5171C2.05724 14.3117 4.04621 16.645 6.68688 17.1738C6.20185 17.3057 5.69154 17.3767 5.16523 17.3767C4.79406 17.3767 4.43217 17.3402 4.08061 17.2727C4.81521 19.5654 6.94557 21.2337 9.47117 21.2805C7.49613 22.8285 5.00819 23.7506 2.30423 23.7506C1.83915 23.7506 1.3794 23.7239 0.927734 23.6706C3.48155 25.3075 6.51403 26.2627 9.77302 26.2627" fill="#ED3237"/>
</g>
</svg>
